<svg width="100" height="92" xmlns="http://www.w3.org/2000/svg" xmlns:xlink="http://www.w3.org/1999/xlink" xml:space="preserve" overflow="hidden"><defs><clipPath id="clip0"><rect x="358" y="280" width="100" height="92"/></clipPath></defs><g clip-path="url(#clip0)" transform="translate(-358 -280)"><path d="M202.62 66.8428C204.116 66.915 205.531 67.547 206.583 68.6134L204.675 71.7142C203.854 70.9361 202.813 70.43 201.693 70.2647 199.235 70.2647 197.29 72.7326 197.29 75.8334L197.29 85.3195 193.703 85.3195 193.703 67.2006 197.29 67.2006 197.29 71.3564 197.372 71.3564C199.207 68.173 200.923 66.8428 202.62 66.8428M124.64 57.7971 120.686 57.7971 120.686 73.8243C120.686 76.4022 120.365 78.4114 118.952 79.8334 117.182 81.3815 114.878 82.1781 112.53 82.0535 110.314 82.1239 108.167 81.2776 106.594 79.7141 105.347 78.4572 104.943 77.1729 104.943 74.0628L104.943 57.7971 100.916 57.7971 100.916 74.9068C100.916 82.4113 106.567 85.6865 112.374 85.6865 120.567 85.6865 124.603 81.2462 124.603 74.5032ZM132.511 67.2006 128.915 67.2006 128.915 85.3195 132.511 85.3195 132.511 72.3289C134.199 70.4299 135.456 69.7051 137.025 69.7051 139.208 69.7051 140.575 71.439 140.575 74.0995L140.575 85.3195 144.172 85.3195 144.172 74.1454C144.172 69.1822 141.419 66.8061 137.997 66.8061 135.869 66.8537 133.877 67.8664 132.585 69.5583L132.511 69.5583ZM150.667 63.852C151.847 63.852 152.804 62.895 152.804 61.7144 152.804 60.5339 151.847 59.5769 150.667 59.5769 149.486 59.5769 148.529 60.5339 148.529 61.7144 148.534 62.8929 149.488 63.847 150.667 63.852M152.447 67.2006 148.85 67.2006 148.85 85.3195 152.447 85.3195ZM168.538 67.2006 163.786 78.338 158.896 67.2006 154.951 67.2006 163.144 85.6865 164.346 85.6865 172.336 67.2006ZM189.198 83.5489C187.09 85.0315 184.554 85.7824 181.978 85.6865 176.327 85.6865 173.18 81.0443 173.18 76.0444 173.18 70.5399 176.657 66.8703 181.657 66.8703 186.455 66.8703 189.529 70.1363 189.529 76.8334L176.776 76.8334C177.336 80.4297 179.4 82.2829 182.868 82.2829 185.148 82.1999 187.352 81.4398 189.198 80.0994ZM185.978 74.4206C185.85 71.6684 184.281 69.9436 181.74 69.9436 178.987 69.9436 177.336 71.5583 176.859 74.4206ZM219.005 68.329C217.38 67.3974 215.548 66.8866 213.675 66.8428 210.005 66.8428 207.702 68.6776 207.702 71.7601 207.702 76.6499 216.179 77.971 216.179 80.4755 216.179 81.7691 214.968 82.4572 213.51 82.5397 212.051 82.6223 209.923 81.7691 207.583 80.1544L207.583 84.0351C209.501 85.1248 211.671 85.6941 213.877 85.6865 217.308 85.6865 219.849 83.5489 219.849 80.3563 219.849 78.5214 218.757 77.2462 215.776 75.2738 212.583 73.439 211.372 72.4482 211.372 71.6041 211.372 70.6317 212.29 69.9528 213.757 69.9528 215.649 70.0807 217.466 70.7353 219.005 71.8427ZM225.684 63.852C226.864 63.852 227.821 62.895 227.821 61.7144 227.821 60.5339 226.864 59.5769 225.684 59.5769 224.503 59.5769 223.546 60.5339 223.546 61.7144 223.551 62.8929 224.505 63.847 225.684 63.852M227.454 67.2006 223.849 67.2006 223.849 85.3195 227.436 85.3195ZM237.225 63.4483 230.482 70.0262 230.482 70.4299 233.629 70.4299 233.629 79.9893C233.629 83.2645 235.61 85.6865 239.518 85.6865 241.041 85.5977 242.526 85.1848 243.876 84.4755L243.876 81.1177C242.672 81.9401 241.26 82.4045 239.803 82.4572 238.426 82.5102 237.266 81.4368 237.213 80.0596 237.209 79.9413 237.213 79.8227 237.225 79.7049L237.225 70.4299 242.959 70.4299 242.959 67.2006 237.225 67.2006ZM261.518 84.2736C259.857 85.3654 259.169 85.6865 258.041 85.6865 256.472 85.6865 255.619 85.1177 255.289 83.8516 253.923 85.0091 252.198 85.6575 250.408 85.6865 247.992 85.7222 246.004 83.7921 245.968 81.3756 245.967 81.3324 245.967 81.2893 245.968 81.2462 245.968 77.6591 249.243 76.5674 252.142 75.5123L255.335 74.3839 255.335 73.3931C255.335 71.1363 254.243 70.2097 252.069 70.2097 249.805 70.2875 247.698 71.3832 246.335 73.1913L246.335 69.3014C247.852 67.5993 250.069 66.6921 252.344 66.8428 256.013 66.8428 258.922 68.6776 258.922 72.8151L258.922 82.1361C258.922 82.8149 259.16 83.0535 259.61 83.0535 260.314 82.8935 260.967 82.5591 261.509 82.081ZM256.509 59.9805C257.522 59.9805 258.344 60.802 258.344 61.8153 258.379 62.8281 257.587 63.6778 256.574 63.7133 256.552 63.714 256.531 63.7144 256.509 63.7144 255.46 63.7144 254.61 62.8642 254.61 61.8153 254.609 60.802 255.43 59.98 256.444 59.9794 256.465 59.9794 256.487 59.9798 256.509 59.9805M249.004 59.9805C250.018 59.9805 250.839 60.802 250.839 61.8153 250.875 62.8281 250.083 63.6778 249.07 63.7133 249.048 63.714 249.026 63.7144 249.004 63.7144 247.956 63.7144 247.105 62.8642 247.105 61.8153 247.105 60.802 247.926 59.98 248.939 59.9794 248.961 59.9794 248.983 59.9798 249.004 59.9805M255.344 76.3655C252.27 77.4114 249.61 78.4572 249.61 80.5948 249.568 81.9571 250.638 83.0956 252 83.1378 252.066 83.1398 252.131 83.1392 252.197 83.136 253.397 83.0708 254.524 82.5372 255.335 81.6498ZM268.701 63.4483 261.958 70.0262 261.958 70.4299 265.133 70.4299 265.133 79.9893C265.133 83.2645 267.114 85.6865 271.022 85.6865 272.545 85.5977 274.03 85.1848 275.38 84.4755L275.38 81.1177C274.176 81.9401 272.764 82.4045 271.307 82.4572 269.93 82.5102 268.77 81.4368 268.717 80.0596 268.713 79.9413 268.717 79.8227 268.729 79.7049L268.729 70.4299 274.454 70.4299 274.454 67.2006 268.729 67.2006ZM302.407 59.375C300.6 58.1329 298.463 57.4588 296.27 57.4393 291.224 57.4393 287.912 60.3016 287.912 64.7786 287.912 72.3289 299.838 72.9711 299.838 78.6682 299.838 80.2003 298.426 82.1361 295.361 82.1361 292.655 82.1361 290.114 80.7232 288.095 78.1361L288.095 83.136C290.294 84.8474 293.016 85.7482 295.802 85.6865 299.85 85.8898 303.297 82.7729 303.5 78.7246 303.509 78.5561 303.511 78.3874 303.508 78.2187 303.508 69.4574 291.582 69.54 291.582 64.2557 291.582 62.3199 293.416 60.9897 295.939 60.9897 298.373 61.0611 300.681 62.0896 302.361 63.852ZM311.526 63.4483 304.783 70.0262 304.783 70.4299 307.93 70.4299 307.93 79.9893C307.93 83.2645 309.912 85.6865 313.829 85.6865 315.351 85.5955 316.836 85.1827 318.187 84.4755L318.187 81.1177C316.979 81.939 315.564 82.4033 314.104 82.4572 312.727 82.5102 311.568 81.4368 311.515 80.0596 311.51 79.9413 311.514 79.8227 311.526 79.7049L311.526 70.4299 317.251 70.4299 317.251 67.2006 311.526 67.2006ZM325.242 83.2645C325.242 81.9269 324.157 80.8425 322.82 80.8425 321.482 80.8425 320.398 81.9269 320.398 83.2645 320.398 84.6021 321.482 85.6865 322.82 85.6865 324.155 85.6814 325.237 84.6 325.242 83.2645M354.415 71.7601 345.168 71.7601 345.168 75.3105 350.452 75.3105 350.452 80.9618C348.531 81.6376 346.516 82.006 344.48 82.0535 337.948 82.0535 333.342 77.7325 333.342 71.595 333.275 65.8497 337.878 61.1379 343.624 61.0708 343.735 61.0695 343.846 61.07 343.957 61.0722 347.428 61.1219 350.831 62.0498 353.847 63.7694L353.847 59.7787C349.525 57.9439 347.269 57.4393 344.039 57.4393 335.645 57.4393 329.269 63.6135 329.269 71.7234 329.269 79.8334 335.48 85.6865 343.948 85.6865 347.569 85.7292 351.153 84.9546 354.434 83.4204ZM373.91 84.2736C372.25 85.3654 371.571 85.6865 370.443 85.6865 368.865 85.6865 368.021 85.1177 367.69 83.8516 366.324 85.0091 364.6 85.6575 362.81 85.6865 360.398 85.7223 358.414 83.7964 358.378 81.3849 358.378 81.3386 358.378 81.2924 358.379 81.2462 358.379 77.6591 361.645 76.5674 364.544 75.5123L367.736 74.3839 367.736 73.3931C367.736 71.1363 366.644 70.2097 364.47 70.2097 362.194 70.2837 360.075 71.3872 358.709 73.2096L358.709 69.3014C360.226 67.6005 362.443 66.6935 364.718 66.8428 368.388 66.8428 371.296 68.6776 371.296 72.8151L371.296 82.1361C371.296 82.8149 371.543 83.0535 371.984 83.0535 372.688 82.8935 373.341 82.5591 373.883 82.081ZM367.736 76.3655C364.663 77.4114 362.002 78.4572 362.002 80.5948 361.96 81.9571 363.03 83.0956 364.393 83.1378 364.458 83.1398 364.524 83.1392 364.589 83.136 365.79 83.0708 366.916 82.5372 367.727 81.6498ZM376.764 85.3195 380.36 85.3195 380.36 57.7971 376.764 57.7971ZM385.195 85.3195 388.791 85.3195 388.791 57.7971 385.195 57.7971ZM408.249 83.5489C406.141 85.0315 403.605 85.7824 401.029 85.6865 395.378 85.6865 392.231 81.0443 392.231 76.0444 392.231 70.5399 395.699 66.8703 400.708 66.8703 405.506 66.8703 408.579 70.1363 408.579 76.8334L395.827 76.8334C396.387 80.4297 398.442 82.2829 401.919 82.2829 404.199 82.1982 406.402 81.4383 408.249 80.0994ZM405.029 74.4206C404.901 71.6684 403.332 69.9436 400.781 69.9436 398.029 69.9436 396.387 71.5583 395.901 74.4206ZM415.827 67.2006 412.231 67.2006 412.231 85.3195 415.827 85.3195 415.827 72.3289C417.524 70.4299 418.772 69.7051 420.35 69.7051 422.524 69.7051 423.9 71.439 423.9 74.0995L423.9 85.3195 427.515 85.3195 427.515 74.1454C427.515 69.1822 424.763 66.8061 421.341 66.8061 419.214 66.8525 417.225 67.8657 415.937 69.5583L415.855 69.5583Z" transform="matrix(1 0 0 1.00282 358 280)"/><path d="M82.5672 64.219 50.0908 52.4027C48.9707 51.9942 48.1188 51.0671 47.8064 49.9165L47.256 47.9074C46.7192 45.953 47.8683 43.9336 49.8226 43.3968 49.9352 43.3659 50.0492 43.3403 50.1642 43.3203L82.5672 37.614ZM37.614 51.9531 35.4122 49.5403C34.2499 48.239 32.332 47.9359 30.8251 48.8156L7.43105 62.3291 11.5227 85.5213 20.6969 86.3286 38.036 56.2375C38.8358 54.8682 38.6655 53.1401 37.614 51.9531ZM32.9443 25.2289C32.4691 23.8732 31.2465 22.9196 29.816 22.7886L0 20.1831 6.46777 56.8797 36.3204 39.6139C37.0715 39.1727 37.4089 38.2642 37.1277 37.4397 36.952 36.9299 36.5535 36.528 36.0452 36.3479 32.9455 35.2353 31.3347 31.8204 32.4473 28.7207 32.5244 28.5059 32.6138 28.2958 32.715 28.0912 33.1685 27.1956 33.2509 26.1573 32.9443 25.2014M82.5672 0 38.2837 20.651C37.3438 21.0883 36.909 22.1834 37.2929 23.1464L37.4764 23.6326C37.7553 24.2929 38.3623 24.7568 39.0727 24.8527 42.3191 25.407 44.5015 28.488 43.9473 31.7344 43.7697 32.7749 43.319 33.7496 42.6414 34.559 42.2989 34.9744 42.2044 35.5412 42.3937 36.0452 42.6873 36.7658 43.4923 37.1321 44.2285 36.88L82.5672 22.9353ZM51.4853 59.8888C48.1658 57.5626 43.5891 58.3678 41.2629 61.6872 41.1361 61.8682 41.0175 62.0548 40.9075 62.2465L26.7701 86.8607 82.5672 91.7414 82.5672 81.6498Z" fill="#00802F" transform="matrix(1 0 0 1.00282 358 280)"/></g></svg>